<?xml version="1.0" encoding="UTF-8" standalone="no"?>
<svg
   xmlns:osb="http://www.openswatchbook.org/uri/2009/osb"
   xmlns:dc="http://purl.org/dc/elements/1.1/"
   xmlns:cc="http://creativecommons.org/ns#"
   xmlns:rdf="http://www.w3.org/1999/02/22-rdf-syntax-ns#"
   xmlns:svg="http://www.w3.org/2000/svg"
   xmlns="http://www.w3.org/2000/svg"
   xmlns:xlink="http://www.w3.org/1999/xlink"
   xmlns:sodipodi="http://sodipodi.sourceforge.net/DTD/sodipodi-0.dtd"
   xmlns:inkscape="http://www.inkscape.org/namespaces/inkscape"
   width="228.66"
   height="39.08"
   version="1.1"
   id="svg3771"
   sodipodi:docname="navbar-logo-ip1-bw.svg"
   inkscape:version="0.92.2 5c3e80d, 2017-08-06"
   inkscape:export-filename="/home/kornap/Downloads/iptonw.wpage/assets/img/navbar-logo-ip1-bw.svg.png"
   inkscape:export-xdpi="96"
   inkscape:export-ydpi="96">
  <metadata
     id="metadata3777">
    <rdf:RDF>
      <cc:Work
         rdf:about="">
        <dc:format>image/svg+xml</dc:format>
        <dc:type
           rdf:resource="http://purl.org/dc/dcmitype/StillImage" />
        <dc:title></dc:title>
      </cc:Work>
    </rdf:RDF>
  </metadata>
  <defs
     id="defs3775">
    <linearGradient
       inkscape:collect="always"
       id="linearGradient6054">
      <stop
         style="stop-color:#febd5d;stop-opacity:1;"
         offset="0"
         id="stop6050" />
      <stop
         style="stop-color:#febd5d;stop-opacity:0;"
         offset="1"
         id="stop6052" />
    </linearGradient>
    <linearGradient
       id="linearGradient6046"
       osb:paint="solid">
      <stop
         style="stop-color:#febd5d;stop-opacity:1;"
         offset="0"
         id="stop6044" />
    </linearGradient>
    <linearGradient
       inkscape:collect="always"
       xlink:href="#linearGradient6054"
       id="linearGradient6058"
       x1="23.40856"
       y1="21.991091"
       x2="173.5519"
       y2="21.991091"
       gradientUnits="userSpaceOnUse" />
  </defs>
  <sodipodi:namedview
     pagecolor="#ffffff"
     bordercolor="#666666"
     borderopacity="1"
     objecttolerance="10"
     gridtolerance="10"
     guidetolerance="10"
     inkscape:pageopacity="0"
     inkscape:pageshadow="2"
     inkscape:window-width="1920"
     inkscape:window-height="1016"
     id="namedview3773"
     showgrid="false"
     inkscape:zoom="5.3498414"
     inkscape:cx="86.313871"
     inkscape:cy="1.8546935"
     inkscape:window-x="1920"
     inkscape:window-y="434"
     inkscape:window-maximized="1"
     inkscape:current-layer="svg3771" />
  <style
     id="style3758">.cls-1{fill:#fed136;}</style>
  <g
     id="g3763">
    <title
       id="title3760">background</title>
    <rect
       fill="none"
       id="canvas_background"
       height="402"
       width="582"
       y="-1"
       x="-1" />
  </g>
  <g
     transform="matrix(0.00639353,0,0,-0.00459849,62.705287,33.777978)"
     id="g836"
     style="opacity:1;fill:none;fill-opacity:1;stroke:#000000;stroke-width:116.95859528;stroke-linejoin:round;stroke-miterlimit:4;stroke-dasharray:none;stroke-dashoffset:0;stroke-opacity:1">
    <path
       inkscape:connector-curvature="0"
       d="m 5516,7140 c -120,-22 -220,-41 -222,-43 -2,-2 4,-44 12,-95 16,-90 15,-92 -5,-126 -21,-34 -23,-34 -170,-62 l -149,-27 -4,-391 c -2,-215 0,-399 4,-408 4,-9 8,-217 8,-461 v -445 l -37,-32 -37,-33 -106,7 c -124,8 -127,6 -132,-69 -3,-45 -6,-50 -28,-53 -39,-6 -50,-21 -50,-67 0,-71 -4,-75 -74,-75 -44,0 -70,-6 -94,-20 -65,-40 -62,4 -62,-1010 0,-913 0,-920 -20,-920 -17,0 -20,7 -20,46 0,90 18,85 -313,84 l -292,-1 -5,743 c -5,689 -6,746 -23,771 -26,40 -59,58 -121,64 l -56,6 v 44 c 0,84 2,83 -189,83 -127,0 -171,3 -179,13 -8,9 -12,210 -14,658 -3,581 -5,646 -20,667 -27,39 -56,54 -118,59 -64,6 -70,13 -70,85 0,27 -6,40 -19,48 -30,15 -533,14 -554,-2 -11,-9 -17,-31 -19,-68 l -3,-55 -71,-6 c -39,-4 -82,-14 -96,-23 -53,-34 -53,-34 -58,-566 l -5,-495 -119,-3 c -67,-1 -126,-7 -133,-14 -7,-6 -13,-31 -13,-59 0,-26 -5,-51 -11,-55 -6,-3 -24,6 -40,22 l -29,28 v 138 138 H 1295 830 V 3597 2034 l -31,-30 c -28,-27 -37,-29 -122,-34 l -92,-5 -3,-983 -2,-982 h 5845 5845 v 1835 1835 h -465 -465 v -495 -495 h 75 c 43,0 75,-4 75,-10 0,-6 -36,-10 -89,-10 -66,0 -92,-4 -101,-15 -10,-12 -42,-15 -169,-15 -196,0 -205,-4 -209,-83 l -3,-57 h -47 c -73,0 -114,-16 -149,-57 l -33,-38 v 787 c 0,702 -2,788 -16,802 -12,13 -38,16 -118,16 -99,0 -103,1 -129,28 l -27,28 -2,1135 -3,1134 -444,3 -443,2 -199,-35 c -110,-19 -203,-37 -208,-39 -5,-3 -2,-42 6,-86 16,-86 14,-107 -14,-117 -10,-4 -22,-12 -28,-19 -5,-6 -39,-17 -75,-23 -36,-7 -89,-16 -117,-22 l -53,-10 v -523 -522 l -32,-32 c -29,-27 -41,-31 -98,-34 l -65,-3 -3,-430 c -1,-236 -4,-436 -7,-444 -4,-10 -8,-11 -20,-1 -11,9 -15,45 -17,159 l -3,146 -265,8 c -379,10 -726,5 -742,-11 -10,-10 -14,-99 -16,-397 l -3,-385 h -104 -105 v 759 c 0,694 -1,760 -17,772 -13,11 -63,13 -252,10 -230,-3 -237,-3 -255,18 -18,20 -28,21 -233,21 -135,0 -213,4 -213,10 0,6 73,10 200,10 h 200 v 1035 1035 l -517,-1 -518,-1 z M 5216,4925 c 10,-8 15,-14 9,-14 -5,0 -19,6 -29,14 -11,8 -15,15 -10,15 6,0 19,-7 30,-15 z m 4459,-25 c 3,-5 1,-10 -4,-10 -6,0 -11,5 -11,10 0,6 2,10 4,10 3,0 8,-4 11,-10 z M 5617,4298 c -2,-13 -4,-3 -4,22 0,25 2,35 4,23 2,-13 2,-33 0,-45 z m 13,-1488 c 0,-167 -4,-260 -10,-260 -6,0 -10,93 -10,260 0,167 4,260 10,260 6,0 10,-93 10,-260 z m 5950,-239 c 0,-17 -4,-33 -10,-36 -6,-4 -10,8 -10,29 0,20 5,36 10,36 6,0 10,-13 10,-29 z M 5627,2148 c -2,-24 -4,-7 -4,37 0,44 2,63 4,43 2,-21 2,-57 0,-80 z"
       id="path834"
       style="fill:none;fill-opacity:1;stroke:#000000;stroke-width:116.95859528;stroke-linejoin:round;stroke-miterlimit:4;stroke-dasharray:none;stroke-dashoffset:0;stroke-opacity:1" />
  </g>
  <text
     xml:space="preserve"
     style="font-style:normal;font-weight:normal;font-size:32.40541077px;line-height:1.25;font-family:sans-serif;letter-spacing:0px;word-spacing:0px;fill:#cecece;fill-opacity:1;stroke:#000000;stroke-width:1.29621649;stroke-linejoin:bevel;stroke-miterlimit:4;stroke-dasharray:none;stroke-opacity:1;paint-order:normal"
     x="35.207977"
     y="31.563032"
     id="text3781"
     transform="scale(0.9800696,1.0203357)"><tspan
       sodipodi:role="line"
       id="tspan3779"
       x="35.207977"
       y="31.563032"
       style="font-style:normal;font-variant:normal;font-weight:bold;font-stretch:normal;font-size:34.56577301px;font-family:FifthLeg;-inkscape-font-specification:'FifthLeg Bold';fill:#cecece;fill-opacity:1;stroke:#000000;stroke-width:1.29621649;stroke-linejoin:bevel;stroke-miterlimit:4;stroke-dasharray:none;stroke-opacity:1;paint-order:normal">IP <tspan
   style="font-size:26.66666603px;fill:#cecece;fill-opacity:1;stroke:#000000;stroke-opacity:1"
   id="tspan1763">Town .pl</tspan></tspan></text>
</svg>
